<?xml version="1.0" encoding="utf-8"?>
<!DOCTYPE svg PUBLIC "-//W3C//DTD SVG 1.0//EN" "http://www.w3.org/TR/2001/REC-SVG-20010904/DTD/svg10.dtd">
<svg version="1.0" xmlns="http://www.w3.org/2000/svg" width="400px" height="400px" viewBox="0 0 400 400" preserveAspectRatio="xMidYMid meet">
 <g fill="#e21524">
  <path d="M72 349.5 c0 -0.3 13.7 -27.9 30.4 -61.4 l30.5 -60.8 -5.2 -0.7 c-2.9 -0.3 -13.9 -1.1 -24.6 -1.7 -19.8 -1.2 -51 -0.1 -67.9 2.2 -4.1 0.6 -7.6 0.9 -7.8 0.6 -0.7 -0.6 21.8 -6.4 35.8 -9.1 73.2 -14.5 140.4 -9.8 195.8 13.9 23.7 10.1 43 23.4 63.1 43.4 17.7 17.7 26 29.3 38 53.3 5.4 10.9 9.9 20 9.9 20.3 0 0.3 -10.9 0.5 -24.2 0.5 l-24.3 0 -5.8 -11.3 c-18.6 -36.4 -55.4 -69.5 -98.8 -88.9 -9.7 -4.3 -36.3 -13.8 -38.7 -13.8 -0.4 0 -13.5 25.7 -29.2 57 l-28.5 57 -24.2 0 c-13.4 0 -24.3 -0.2 -24.3 -0.5z"/>
  <path d="M21.5 227.6 c4.2 -1.3 5.9 -1.1 3.5 0.4 -0.8 0.6 -2.8 0.9 -4.5 0.9 -2.8 -0.1 -2.8 -0.1 1 -1.3z"/>
  <path d="M52.1 209.6 c1.1 -1.2 29 -12 42.4 -16.5 15.9 -5.3 40.2 -11.9 54.8 -14.7 l8.9 -1.7 31.1 -62.4 c17.2 -34.2 31.4 -62.3 31.7 -62.3 0.3 0 18 34.9 39.3 77.6 21.4 42.7 38.2 77.4 37.5 77.1 -18.1 -8 -36.7 -14.2 -50.2 -16.8 l-6.8 -1.3 -9.6 -19.3 c-5.3 -10.6 -9.9 -19.3 -10.2 -19.3 -0.3 0 -4.4 7.8 -9.2 17.4 l-8.6 17.3 -19.9 0.6 c-27.9 0.8 -52.8 4.9 -83.4 13.7 -7.5 2.1 -16.5 4.4 -20 5 -3.5 0.6 -11.1 2.2 -16.7 3.6 -10.8 2.5 -11.8 2.7 -11.1 2z"/>
 </g>
</svg>